<?xml version="1.0" encoding="utf-8"?>
<!-- Generator: Adobe Illustrator 16.0.0, SVG Export Plug-In . SVG Version: 6.00 Build 0)  -->
<!DOCTYPE svg PUBLIC "-//W3C//DTD SVG 1.1//EN" "http://www.w3.org/Graphics/SVG/1.1/DTD/svg11.dtd">
<svg version="1.1" id="图层_1" xmlns="http://www.w3.org/2000/svg" xmlns:xlink="http://www.w3.org/1999/xlink" x="0px" y="0px"
	 width="539.612px" height="842.691px" viewBox="-0.402 -0.805 539.612 842.691"
	 enable-background="new -0.402 -0.805 539.612 842.691" xml:space="preserve">
<path fill="#fff" d="M536.803,93.806v707.988c-20.848,0-37.686,16.84-39.289,36.885H40.489
	c-0.802-20.848-18.44-36.885-39.288-36.885V93.806c22.45,0,39.288-16.838,39.288-38.485h90.604
	C144.724,24.853,200.85,1.6,269.002,1.6c68.153,0,124.28,22.45,137.909,53.721h90.604C497.514,76.968,515.153,93.806,536.803,93.806
	z"/>
<path id="XMLID_7_" fill="#a7e1f1" d="M536.803,92.204c-20.045,0-36.883-16.838-36.883-36.883v-2.405h-91.404
	c-7.217-15.234-24.855-28.865-48.91-38.486c-25.658-9.622-57.73-15.234-90.604-15.234c-32.874,0-64.945,5.612-89.803,15.233
	c-24.854,9.622-41.692,23.252-48.908,38.486H38.886v2.405c0,20.045-16.838,36.883-36.883,36.883h-2.405v711.998h2.405
	c20.045,0,36.081,15.234,36.883,35.279v2.406h461.035v-2.406c0.801-20.045,16.838-35.279,36.883-35.279h2.406V92.204H536.803z
	 M534.397,799.39c-20.045,0.803-36.883,16.838-38.486,36.883H42.894c-1.604-20.045-18.441-36.08-38.486-36.883V96.212
	c20.045-0.802,37.686-17.639,38.486-39.288h89.802l0.803-1.604c13.631-30.468,70.559-52.117,135.504-52.117
	c64.946,0,122.676,22.451,135.504,52.117l0.801,1.604h89.803c0.803,20.848,17.641,37.686,39.287,39.288V799.39L534.397,799.39z
	 M476.669,71.357l-0.803-3.207h-82.584c-15.234-29.667-64.947-49.712-124.28-49.712c-59.333,0-109.045,20.045-124.278,49.712H62.138
	l-0.802,3.207C58.129,81.78,50.11,91.402,40.489,97.816c-5.611,4.009-12.026,6.414-18.44,8.018l-3.207,0.802v677.521l3.207,0.803
	c6.414,1.604,12.829,4.01,18.44,8.02c9.621,6.414,17.641,16.035,20.848,25.656l0.802,3.207h414.531l0.801-3.207
	c3.207-9.621,10.424-19.242,20.848-25.656c5.613-4.01,12.027-7.217,18.441-8.02l3.207-0.803V106.635l-3.207-0.802
	c-6.414-1.604-12.828-4.009-18.441-8.018C487.893,90.6,479.876,80.979,476.669,71.357z M511.145,777.742
	c-6.414,1.605-12.83,4.812-18.441,8.82c-10.422,7.217-18.441,16.838-23.252,27.262H67.75c-4.01-10.424-12.026-20.045-23.252-27.262
	c-5.612-4.01-11.226-6.414-17.641-8.82V113.049c6.415-1.604,12.027-4.811,17.641-8.819C55.724,97.013,63.74,87.393,67.75,76.167
	h81.783l0.803-2.405c12.025-27.261,61.737-47.306,117.863-47.306c56.127,0,105.838,20.045,117.864,47.306l0.803,2.405h81.783
	c4.01,11.227,12.027,20.847,23.252,28.063l0,0c5.613,4.009,12.027,7.216,18.441,8.819v664.692H511.145L511.145,777.742z"/>
	<feOffset result="offOut" in="SourceGraphic" dx="0" dy="0" />
    <feGaussianBlur result="blurOut" in="offOut" stdDeviation="10" />
</svg>

