<?xml version="1.0" encoding="utf-8"?>
<!-- Generator: Adobe Illustrator 16.0.0, SVG Export Plug-In . SVG Version: 6.00 Build 0)  -->
<!DOCTYPE svg PUBLIC "-//W3C//DTD SVG 1.1//EN" "http://www.w3.org/Graphics/SVG/1.1/DTD/svg11.dtd">
<svg version="1.1" id="eqxiu" xmlns="http://www.w3.org/2000/svg" xmlns:xlink="http://www.w3.org/1999/xlink" x="0px" y="0px"
	 width="595.281px" height="132.666px" viewBox="0 0 595.281 132.666" enable-background="new 0 0 595.281 132.666"
	 xml:space="preserve">
<path fill="#a7e1f1" d="M75.922,60.104c0,0,2.688-5.375,11.423-8.062c7.391-2.688,12.766,3.358,14.108,5.375
	c0,0.672-2.016,0.672-4.031,1.344l-8.062-4.031l6.719,4.703c-2.016,0.672-4.031,1.344-6.047,1.344l-6.047-4.03l4.703,3.358
	c-3.359,0.672-6.719,0.672-9.406,0c0.672,0,6.047,1.344,11.422,1.344l-5.375,3.359l8.062-3.359c2.688,0,5.375-0.672,6.719-1.344
	c-2.688,3.359-7.391,8.062-12.094,8.062C81.297,68.166,75.922,60.104,75.922,60.104z M138.406,29.869V19.118l0.672,8.062
	c2.688-6.047,6.719-12.766,7.392-13.438c-2.017,2.688-3.359,6.719-4.703,10.75l6.719-4.031l-7.391,6.047
	c-1.345,2.688-2.017,5.375-2.017,7.391l8.734-6.047l-9.406,8.062c0,2.016,0,4.03,0,4.703c2.688-1.345,12.766-5.375,13.438-14.781
	c1.345-10.75-2.688-16.125-2.688-16.125s-11.422,3.359-15.453,11.422c-2.688,5.375,0,12.766,2.016,16.797
	C135.719,35.916,137.062,32.557,138.406,29.869z M152.515,35.916c0.672-0.672,1.344-1.345,2.016-2.017l2.688-4.703l-2.017,4.031
	c1.344-1.344,4.031-2.688,5.375-3.358c-0.672,0.672-1.344,1.344-2.016,2.016l3.358-0.672l-4.03,1.344
	c-0.673,0.672-2.688,2.016-3.359,2.688h4.703l-4.703,0.672c-0.672,1.344-0.672,2.016-0.672,2.016c2.016,0,7.391,0.672,8.733-2.016
	c2.017-3.359,1.345-7.392,1.345-7.392s-7.392-1.344-10.75,1.345C151.172,31.885,151.844,34.572,152.515,35.916z M111.531,10.385
	c-0.672,1.344-0.672,2.017,0,3.358c0.672,2.017,2.016,2.688,4.031,3.359c2.688,0.672,5.375-0.672,6.047-1.344
	c2.016-2.016,2.016-3.359,2.016-5.375c-1.344,4.031-4.703,5.375-7.391,4.703C114.89,13.743,111.531,12.401,111.531,10.385z
	 M113.547,27.854c-1.344-0.672-3.358-3.358-3.358-4.702c-2.688-0.673-4.703-4.031-5.375-6.048c-2.688-3.358-3.359-7.391-2.688-10.75
	c-5.375,2.017-5.375,14.781-0.672,18.812C106.156,29.196,111.531,29.197,113.547,27.854z M107.5,11.729
	c-0.672,1.345-0.672,4.703,0,6.048c1.345,2.688,2.688,4.03,5.375,4.702c2.688,0.673,5.375,0,7.392-0.672
	c3.358-1.344,4.03-5.375,4.703-8.062c-1.345,2.688-5.375,5.375-9.406,4.703c-3.359-0.672-6.047-2.688-5.375-6.047
	c0-2.017,1.344-4.703,2.016-6.72C110.187,6.354,108.172,9.04,107.5,11.729z M118.922,11.729c0.673,0,0.673,0,1.345,0
	c1.344-0.672-2.688-3.358-3.359-3.358c-1.344,0.672-0.672,4.031-0.672,4.703c0.672,0,1.344,0.672,2.688,0
	c-1.344-0.672-2.688-2.688-0.672-2.017C118.25,11.057,118.922,11.057,118.922,11.729z M118.25,5.01c-1.344,0-2.688,0-4.03,0.672
	c-1.344,0.672-2.017,2.017-2.688,4.031c1.344,1.344,1.344,2.016,3.359,2.688c0-0.673,0-2.688,0-3.359
	c0-1.344,0.672-2.688,2.688-2.016c2.688,0,4.031,2.688,4.703,4.03c0.672-0.672,1.344-1.344,0.672-2.017
	C121.609,6.354,120.265,5.682,118.25,5.01z M123.625,7.026L123.625,7.026L123.625,7.026L123.625,7.026z M125.64,11.729
	c1.344,3.359,0,8.062-1.345,9.406c-2.016,2.688-6.719,5.375-12.094,3.358c0,2.017,2.688,4.031,5.375,5.376
	c2.016-0.673,5.375-1.345,8.062-3.359c8.062-5.375,4.03-18.142-2.017-19.483l0.672,0.672C125.64,9.04,126.312,9.713,125.64,11.729z
	 M109.515,5.682c1.344-1.344,3.358-2.017,6.047-2.017c2.688,0,6.047,1.345,8.062,3.359c-0.672-2.688-3.358-5.375-8.733-6.047
	s-10.078,2.016-10.75,4.703c-0.673,2.016-0.673,6.047,0.672,8.062C105.484,11.057,106.828,7.698,109.515,5.682z M176.031,44.65
	c0.672,1.345,2.016,6.047,6.719,6.72c5.375,0.672,8.062-0.673,8.062-0.673s-0.672-5.375-4.703-7.391
	c-2.688-1.344-6.719,0-8.734,0.672c1.345,0,2.688,0.672,4.031,1.344l5.375,0.673h-4.031c2.688,1.344,6.047,3.358,6.047,4.03
	c-1.344-0.672-3.358-2.016-4.702-2.688l1.344,3.358l-2.688-3.358c-1.344-0.672-2.688-1.344-3.358-1.344l2.688,4.03l-4.031-4.703
	C177.375,44.65,176.031,44.65,176.031,44.65z M167.297,37.932c-1.344-2.688-1.344-4.703,0-6.719c0-0.672,0-1.344,0-2.017
	c0,0,0.673,0.673,1.345,0.673c2.688,0,5.375,1.344,6.719,4.03c0,0.672,0.672,0.672,0.672,1.345
	c-2.016,1.344-2.016,2.688-2.016,3.358c-1.345-2.016-3.359-4.031-2.017-6.719c-0.672,0.672-0.672,2.016-0.672,2.688
	c-1.344-1.344-3.359-4.03-3.359-4.03s0.673,1.344,2.017,3.358c0,0,0,0-0.672,0c0.672,0,0.672,0.672,1.344,0.672
	s0.672,0.673,0.672,0.673s0,0.672,0.672,1.344c-0.672-0.672-1.344-1.344-3.358-1.344c2.688,0,3.358,2.016,4.03,4.03
	C171.328,38.604,169.984,37.26,167.297,37.932c2.017-0.672,4.703,1.344,5.375,2.688c0.673,0.672,0.673,1.344,0.673,1.344
	C171.328,41.963,168.64,40.619,167.297,37.932z M167.969,33.229c0.672,0,1.344,0,1.344,0.672
	C168.64,33.229,167.969,33.229,167.969,33.229z M174.687,40.619c1.344-0.673,2.016-2.688,1.344-5.375
	C174.687,37.932,174.015,39.275,174.687,40.619z M176.031,35.244L176.031,35.244C175.359,35.916,175.359,35.916,176.031,35.244
	C176.031,35.916,176.031,35.244,176.031,35.244z M494.499,58.088c0.673,0,2.017,0.672,4.031,1.344l8.062-4.031l-6.72,4.703
	c2.017,0.672,4.031,1.344,6.048,1.344l6.047-3.358l-4.703,2.688c3.358,0.672,6.719,0.672,9.406,0c-0.673,0-6.048,1.345-11.423,1.345
	l5.375,3.358l-8.062-3.358c-2.688-0.673-5.375-0.673-6.719-1.345c2.688,3.359,7.391,8.062,12.094,8.062
	c6.719,0,12.094-8.062,12.094-8.062s-2.688-5.375-11.422-8.062C501.219,50.025,495.844,56.072,494.499,58.088z M457.547,40.619
	c0-0.673,0-2.688-0.673-4.703l-9.405-8.062l8.733,6.047c0-2.016-0.672-4.703-2.016-7.391l-7.391-6.047l6.719,4.03
	c-1.344-4.03-2.688-8.062-4.703-10.75c0.672,0.672,4.703,6.72,7.391,13.438l1.345-8.062v10.75c1.344,3.358,2.016,6.047,2.688,8.062
	c2.016-4.031,4.703-11.422,2.016-16.797c-4.03-8.062-15.452-11.422-15.452-11.422s-4.031,5.375-2.688,16.125
	C444.781,35.244,454.859,39.275,457.547,40.619z M442.094,39.275C442.094,39.275,442.094,38.604,442.094,39.275l-5.375-1.344h4.703
	c-0.673-0.672-2.017-2.016-3.359-2.688l-4.031-1.345l3.359,0.672c-0.672-0.672-2.017-2.016-2.688-2.688
	c0.672,0,4.031,2.688,6.047,4.031l-2.016-4.031l2.688,4.703c0-1.344,1.344-0.672,2.016,0.672c0.672-1.344,1.344-4.703-0.672-6.047
	c-3.359-2.688-10.75-1.344-10.75-1.344s-1.344,4.03,1.344,7.391C435.374,39.947,440.077,39.275,442.094,39.275z M491.14,17.104
	c0,2.017-2.688,5.375-5.375,6.048c0.672,2.016-2.017,4.702-3.359,4.702c2.017,1.344,6.72,2.017,12.095-2.688
	c4.702-4.031,4.702-16.798-0.673-18.812C494.499,9.04,493.827,13.743,491.14,17.104z M477.031,13.073c0.672,0,1.345,0,2.688,0
	c0-0.672,0.672-4.031-0.672-4.703c-0.672,0-4.703,2.688-3.359,3.358c0.672,0,0.672,0,1.344,0l0.672-0.672
	C479.719,10.385,478.374,13.073,477.031,13.073z M471.656,9.04c0,2.688,0,4.703,2.017,6.048c1.344,1.344,3.358,2.016,6.047,1.344
	c2.016-0.672,3.358-1.344,4.031-3.358c0.672-0.672,0-2.017,0-2.688c0,0,0.672,0,0.672-0.672c-0.672-2.017-0.672-3.359-2.688-4.031
	c-1.344-0.672-3.358-0.672-4.031-0.672c-2.016,0.672-3.358,1.344-4.702,4.03c0,0.673,0.672,1.345,0.672,2.017
	c0-1.344,2.016-4.03,4.703-4.03c1.344,0,2.016,0.672,2.688,2.016c0,0.672,0,2.688,0,3.359c1.344-1.345,1.344-1.345,2.688-2.017
	c-0.672,1.344-3.358,2.688-4.702,3.358C475.687,14.415,472.327,13.073,471.656,9.04z M470.312,26.51
	c2.688,2.016,6.047,2.688,8.062,2.688c2.688-1.344,5.375-3.358,5.375-5.374c-5.375,2.016-10.077-0.672-12.094-3.359
	c-1.344-2.016-2.688-6.047-1.344-9.406c0-2.016,0-3.359,1.344-4.031l0.672-0.672C466.281,8.368,462.249,21.135,470.312,26.51z
	 M472.327,6.354L472.327,6.354L472.327,6.354L472.327,6.354z M480.39,2.993c2.688,0,4.031,0.672,6.047,2.017
	c2.688,2.017,3.359,5.375,4.703,8.062c1.344-2.016,1.344-5.375,0.672-8.062s-5.375-6.047-10.75-4.703
	c-5.375,0.672-8.062,4.031-8.734,6.047C474.344,4.338,477.702,2.993,480.39,2.993z M475.687,21.807
	c2.016,0.672,4.703,1.345,7.391,0.672c2.688-0.672,4.031-2.016,5.375-4.702c0.673-2.017,0.673-4.703,0-6.048
	c-0.672-2.688-3.358-5.375-4.702-6.047c1.344,2.017,2.016,4.703,2.016,6.72c0,3.358-2.688,5.375-6.047,6.047
	c-4.031,0.672-8.062-1.345-9.406-4.703C471.656,16.432,472.327,20.463,475.687,21.807z M418.577,43.979
	c-2.016-0.672-6.047-2.016-8.733-0.672c-4.031,2.016-4.703,7.391-4.703,7.391s2.688,2.017,8.062,0.673
	c4.703-0.673,6.047-5.375,6.72-6.72c0,0-1.345,0-2.688,0.672l-3.359,4.703l2.688-4.03c-1.344,0-2.688,0.672-3.359,1.344
	l-2.688,3.358l1.344-3.358c-0.672,0-1.344,0.672-2.016,0.672c0.672-0.672,2.016-1.344,3.358-2.016h-4.03l5.375-0.673
	C415.89,44.65,417.234,43.979,418.577,43.979z M427.984,29.869C427.984,29.869,427.312,30.541,427.984,29.869
	C427.312,30.541,427.312,30.541,427.984,29.869C427.312,30.541,427.984,29.869,427.984,29.869z M426.64,33.229
	c-0.672,0-0.672,0.672-1.344,0.672c0,0,0,0.672-0.673,0.672c0,0.673-0.672,0.673-0.672,1.345c0.672-0.672,1.345-1.345,3.359-1.345
	c-2.688,0.673-4.031,2.017-4.703,4.703c0.672-0.672,2.016-2.016,5.375-2.016c-2.016,0-4.703,2.016-5.375,3.359
	c0,0.672,0,0.672-0.672,1.344c2.016,0.672,4.703-1.344,6.047-4.031c1.344-2.016,1.344-4.703,0-6.719c0,0,0-0.672-0.672-0.672
	C427.312,31.213,426.64,32.557,426.64,33.229C425.969,33.229,425.969,33.229,426.64,33.229z M583.187,56.072h-0.672H583.187z
	 M413.874,31.885l2.017,5.375c0.672,0,0.672,0,1.344,0C416.562,35.916,415.89,33.9,413.874,31.885z M413.874,31.885L413.874,31.885
	L413.874,31.885L413.874,31.885z M420.594,39.947c0.672-1.344,0-4.03-0.672-5.375c1.344,1.345,2.016,2.688,2.016,3.359
	c1.344-2.016,2.688-4.703,2.016-6.719c0.672,0.672,0.672,2.016,0.672,2.688c0.673-1.344,2.017-2.688,2.688-3.358
	c0-0.672,0-0.672,0.672-1.345c0,0-0.672,0.673-1.344,0.673c-2.688,0-5.375,1.344-6.719,4.03c-0.673,1.345-1.345,3.359-0.673,4.703
	l-0.672-0.672c0,0-0.672,0-1.344-0.672c0,0.672,0,1.344,0,2.016c2.688,1.345,4.703,4.703,6.047,7.392
	C422.609,44.65,421.937,41.963,420.594,39.947z M440.749,53.385L440.749,53.385C440.749,52.713,440.077,53.385,440.749,53.385
	C440.077,53.385,440.749,53.385,440.749,53.385z M493.156,76.229c1.345,0.672,1.345,2.017,1.345,2.688s-0.673,2.016-2.017,1.344
	c-1.344,0-2.016-0.672-2.016-2.016c0,1.344,0.672,2.016,2.016,2.688c0.672,0.672,1.344,0.672,2.017,0
	c0.672,0,1.344-0.672,1.344-1.344c0-1.344-0.672-2.688-1.344-3.359c-2.017-1.344-4.703-1.344-6.72,0
	c0.672,0,2.017-0.672,2.688-0.672S492.484,75.557,493.156,76.229z M401.109,29.869c0,0-1.344,6.719,2.688,10.077
	c2.688,2.017,8.062,2.017,12.766,0c-1.344-0.672-3.359-1.344-4.703-2.688l-6.047-1.344l4.703,0.672
	c-3.359-2.688-6.047-5.375-6.047-6.047c1.344,1.344,3.358,2.688,5.375,4.03l-0.672-4.03l2.016,4.703
	c1.344,0.672,2.688,2.016,4.031,2.016l-1.344-5.375c-0.673-0.672-1.345-0.672-2.017-1.344
	C405.14,28.525,401.109,29.869,401.109,29.869z M440.077,53.385L440.077,53.385L440.077,53.385z M595.281,56.744
	c0,2.688-1.344,5.375-3.358,7.391c-3.359,4.031-8.062,6.719-12.767,8.734c-4.704,2.015-9.405,4.03-14.78,5.375
	c-6.72,1.344-13.438,2.688-20.156,2.688c3.358,2.688,2.016,7.391,2.016,7.391c-1.344-4.03-5.375-6.047-8.062-7.391
	c-2.017,0-3.359,0-5.375,0c-9.406-0.672-18.812-1.344-27.548-4.703c0.673,2.017,0,4.703-0.672,6.719
	c-0.672,2.017-3.358,4.031-5.375,4.703c-2.688,0.672-4.703,0.672-7.391,0s-4.703-2.688-5.375-4.703
	c-0.672-1.344-0.672-2.688-0.672-3.358c0-1.344,0.672-2.688,2.016-3.359c-0.672,0.672-1.344,1.344-1.344,2.017
	c0,1.344,0,2.016,0.672,3.358c0.672,2.017,2.688,3.359,4.703,4.031s4.031,0.672,6.047,0c4.031-1.344,6.047-6.047,4.703-10.078
	s-5.375-6.719-9.406-8.062c-4.031-1.344-8.733-1.345-12.766-0.673c-0.672,0-0.672,0-1.344,0c3.358,1.345,2.688,5.375,2.688,5.375
	c-0.672-2.688-4.031-4.03-5.375-4.702c-2.688,0.672-5.375,2.016-8.062,3.358c-3.359,2.017-6.72,4.031-10.078,6.047
	c-2.017,2.688-4.703,4.031-7.392,5.375c-2.016,0.672-4.03,1.345-6.047,2.017c2.688,1.344,2.688,5.375,2.688,5.375
	c-0.672-2.688-4.031-4.031-6.047-4.703c-2.017,0.672-4.703,0.672-6.72,0.672c-4.03,0-8.062,0-12.766-0.672
	c2.016,3.358-0.672,7.391-0.672,7.391c0.672-3.358-1.344-6.047-2.688-8.062c-5.375-1.345-10.75-2.688-16.125-4.031
	c-0.672,0-2.016-0.672-2.688-0.672c-2.017,2.016-4.703,3.358-7.392,4.031c2.017,2.016,1.345,4.702,1.345,4.702
	c-0.672-2.016-2.688-3.358-4.031-4.03c-2.688,0.672-6.047,1.344-8.734,1.344c-6.047,0.672-12.766,0-18.812-0.672
	c2.688,4.031,2.016,10.078,2.016,10.078c-2.016-7.392-9.406-10.75-14.108-12.095c-2.688-0.672-4.703-1.344-7.392-2.016
	c-0.672,0-0.672,0.672-1.344,0.672l-1.344,1.344c-1.344,0.673-2.017,1.345-3.359,2.017c-2.016,1.344-4.031,3.358-6.047,4.703
	c-1.344,1.344-2.688,2.688-4.703,4.03c2.688-1.344,5.375-2.016,8.734-2.688c5.375-0.672,10.75-0.672,16.125,0.672
	s10.078,4.703,12.766,9.406c2.688,4.703,4.703,10.078,4.031,15.453c0,5.375-3.359,10.75-8.734,12.766
	c-2.688,1.344-5.375,1.344-8.062,1.344c-1.345,0-2.688,0-4.031-0.672s-2.688-1.344-3.359-2.688
	c-2.016-2.017-2.016-5.375-1.344-8.062c0.672-2.687,3.359-4.703,6.047-5.375c2.688-0.672,6.047,0.672,6.72,3.359
	c0,0.672,0,1.344,0,2.016s-0.673,1.344-0.673,2.017c-1.344,0.672-2.688,0-4.03-0.673c1.344,0.673,2.688,0.673,3.358,0
	c0.671-0.672,0.672-2.016,0.672-3.358c-0.672-2.017-3.358-3.359-5.375-2.688c-2.016,0.671-4.03,2.688-4.702,4.703
	c-0.673,2.016,0,4.703,1.344,6.719c1.344,2.017,4.031,2.017,6.047,2.688c2.688,0,4.703,0,7.391-1.344
	c4.703-2.017,7.392-6.72,7.392-11.422c0-4.703-1.345-10.078-4.031-13.438c-2.688-4.031-6.719-6.719-11.422-8.062
	c-9.406-2.688-20.156,0-28.22,4.702c0,0-3.358-0.672-4.702,0c-0.673,0.673-2.017,0.673-3.359,1.345
	c-19.484,4.03-27.547,1.344-35.609-11.422c6.046,5.375,13.438,10.077,22.843,9.405c0.672,0,0.672,0,1.345,0
	c3.358-1.344,8.062-6.719,10.078-10.078c0.672-2.016,2.688-7.391,3.358-12.094c0-1.344,0-4.031-0.672-4.703
	c3.359,2.688,4.703,10.75,2.688,18.142c-0.672,2.016-1.345,4.03-2.688,5.375c1.344-1.345,2.688-3.359,3.359-6.047
	c1.344-2.688,1.344-6.72,1.344-9.406c0-5.375-1.344-8.734-6.047-13.438c-3.359-3.358-10.078-6.719-14.109-7.391
	c-2.016-0.672-4.032-0.672-6.047-0.672c-1.344,0-2.688,0-2.688,0.672s6.048,0.672,8.735,1.344c0.672,0,0.672,0.672,0,0.672
	c-7.391-0.672-13.438,4.031-16.797,11.422c-2.016,4.703-2.016,15.453-2.016,16.798c-8.734-5.375-10.078-12.767-10.078-16.798
	c0-6.719,5.375-10.077,10.75-13.438c5.376-3.359,12.094-2.016,12.766-2.016c0.672-0.673,8.063-2.688,14.11-2.688
	c5.375,0,15.453,3.359,12.766,10.078c6.72,0.672,8.062,6.719,8.062,9.406c0,4.703-2.688,12.094-7.392,15.453v0.672
	c2.017-1.345,3.359-3.359,5.375-4.703c2.017-2.017,3.359-3.359,5.375-4.703c1.345-0.672,2.017-1.344,3.359-2.688l2.016-1.344
	c0.673-0.672,1.345-0.672,2.017-1.344c3.358-1.344,6.719-2.688,10.078-3.359c1.344-3.358,2.016-8.733-0.672-12.766
	c0,0,6.719,4.703,5.375,11.422c0.672,0,1.344,0,2.016,0c3.359-0.672,7.391-0.672,10.75-1.344c2.688-2.017,4.703-5.375,4.703-9.406
	c0,0,2.688,5.375,0,9.406h0.672c5.375,0,10.75,0.672,16.125,1.344c1.344,0,2.016,0.672,3.359,0.672
	c1.344-0.672,2.688-2.016,3.358-4.031c0,0,0.672,2.688-1.344,4.703c2.688,0.672,4.703,1.345,7.391,2.017
	c1.345-1.345,2.688-3.359,3.359-4.703c1.344-2.688,2.688-6.047,4.031-9.406c0.672,3.359,0,6.719-1.345,10.078
	c-0.672,2.016-2.016,3.359-2.688,4.703c1.344,0.672,2.688,0.672,4.031,1.344c2.016-1.344,4.703-3.359,7.391-6.719
	c0-2.017-0.672-5.375-3.359-7.392c0,0,4.031,0.673,4.703,4.031c0,0.672,0,0.672,0,0.672c2.688-4.703,4.703-10.75,4.703-17.469
	c0-0.672,0-1.344,0-2.016c0.672,1.344,0.672,2.688,0.672,4.703c0.672,14.108-5.375,21.5-11.422,28.219
	c6.719,2.016,14.109,3.358,20.828,3.358c2.016-2.016,4.031-5.375,3.359-9.405c0,0,3.358,4.03,0.672,8.062
	c0,0.672-0.672,0.672-0.672,1.344c4.703,0,8.733-0.672,12.766-2.688c1.344-2.016,3.359-4.703,2.688-8.062
	c0,0,2.016,2.688,1.344,6.048c2.688-2.017,4.703-4.031,6.047-7.392c2.016-4.703,2.016-10.078,0.672-14.781
	c-0.672-3.358-2.688-6.047-4.703-8.062c-2.016-0.672-4.703-1.344-6.719-0.672c0,0,1.344-1.344,3.359-2.017l-0.673-0.672
	c-2.016-2.016-4.702-2.688-7.391-2.688c-2.688,0-5.375,0-7.391,1.344c-2.017,1.344-4.031,3.359-4.703,5.375
	s-0.672,4.703,0.672,6.719c1.344,2.017,4.031,3.359,6.047,4.031c2.688,0.672,4.703,0,6.047-2.688
	c0.672-0.673,1.344-2.017,0.672-3.359c0-1.344-0.672-2.016-2.016-2.688c-0.672-0.672-2.016-0.672-2.688,0
	c0,0.673-0.672,1.345-0.672,2.017c0-0.672,0-1.344,0-2.017c0.672-0.672,1.345-1.344,2.017-1.344s1.344,0,2.016,0.672
	c1.344,0.672,2.016,2.017,2.016,3.359s0,2.688-1.344,4.031c-0.672,1.344-2.016,2.016-3.358,2.688
	c-1.344,0.672-2.688,0.672-4.031,0.672c-2.688-0.672-5.375-2.016-7.392-4.03c-2.016-2.016-2.016-5.375-1.344-8.062
	c0.672-2.687,2.688-5.375,5.375-6.719c1.344-0.672,2.688-1.344,4.031-1.344s2.688,0,4.031,0c2.688,0,5.375,1.344,8.062,2.688
	c3.359,1.344,6.047,4.031,8.062,6.719c0.672-2.688,4.03-3.358,4.03-3.358c-2.016,2.016-2.016,4.703-2.016,6.719
	c0,0.672,0.672,1.344,0.672,2.016c1.344,4.031,1.344,8.734,0.672,13.438c2.688-1.344,6.047-4.031,8.734-6.047
	c0.672-2.017,1.344-4.703,0-7.392c0,0,2.016,2.017,2.688,4.703c6.048-6.719,10.75-14.781,10.078-20.828
	c-0.672-0.672-1.344-0.672-1.344-1.344c0,0,0,0,0-0.672c0,0.672,0,2.016,0,2.688c0,1.345-1.344,4.703-2.688,6.048
	c-0.673,1.344-1.345,2.016-1.345,2.688c0,0,0,0,0-2.016c1.345-2.017,0.672-6.72,0-8.062c-2.016-2.016-2.016-2.016-0.672-4.031
	c0.672-1.344,2.017-2.688,3.359-4.03c4.031,1.344,8.733,0.672,10.75-1.345c2.016-0.672,3.358-1.344,4.703-2.688
	c0.672-0.672,1.344-0.672,1.344-1.344c1.344,0,3.359,0,3.359,1.344c0.672,2.016,0,4.703,0.672,6.047c-0.672,0-1.345,0-1.345-0.672
	c-1.344-4.703-7.391-2.688-8.062-2.016c0.672,0,1.344,0,1.344,0.672c1.344,2.016,3.359,4.03,3.359,6.719
	c0,0.672-0.672,1.344-0.672,2.016c-0.672,2.688-0.672,6.72,0.672,9.406c-0.672-1.344-5.375-4.703-4.703-9.406
	c0-1.344,0.672-2.016,0.672-3.358c-0.672-0.672-1.344-1.345-2.016-2.017c-0.672,0.672-0.672,1.345-0.672,2.017
	c-0.673,1.344-0.673,2.016-2.017,2.016c1.344,10.75-7.391,20.156-13.438,26.203c-1.345,1.344-2.688,2.016-4.031,3.359
	c3.359-1.345,6.719-2.688,10.75-3.359c1.344,0,3.359-0.672,4.703-0.672c1.344-1.344,3.358-2.688,4.031-5.375
	c0,0,0.672,2.688-0.673,5.375c2.017,0,4.031,0.672,6.048,1.344c2.016,0.672,4.702,2.016,6.047,3.359
	c1.344,0.672,2.016,2.016,2.688,3.358c4.703,2.017,9.406,2.688,14.109,3.359s10.078,1.344,14.781,1.344
	c7.391,0,15.452,0,22.844-1.344c2.688-1.344,5.375-4.031,5.375-7.391c0,0,1.344,3.358-0.672,6.719c0.672,0,1.344,0,2.016-0.672
	c4.703-1.345,9.406-2.688,14.109-4.703c4.703-2.016,8.733-4.031,12.766-7.392c2.016-1.344,3.359-4.03,3.359-6.047
	c0-2.016-2.017-4.03-4.703-4.703c-2.688-0.672-5.375,0-6.719,2.017l0,0v-0.672c2.016-2.017,4.702-2.688,7.391-2.017
	C591.922,51.369,595.281,54.057,595.281,56.744z M481.062,36.588c0-0.672,0-0.672,0-1.344
	C481.062,35.244,481.062,35.244,481.062,36.588C481.062,35.916,481.062,36.588,481.062,36.588z M581.172,54.057
	c0-0.672,0-0.672,0-1.344C580.499,53.385,580.499,54.057,581.172,54.057z M491.812,77.572c0,0,0.672,0.673,1.344,0.673
	C493.156,78.244,492.484,77.572,491.812,77.572z M585.874,54.057c-0.672,0.672-1.344,1.344-2.688,1.344
	C584.531,56.072,585.202,55.4,585.874,54.057z M582.515,55.4c-0.672-0.672-0.672-0.672-1.344-1.344
	C581.172,54.729,581.844,55.4,582.515,55.4z M490.469,78.244L490.469,78.244L490.469,78.244z M490.469,78.244h0.672
	C491.14,77.572,490.469,78.244,490.469,78.244z M491.812,77.572C491.14,77.572,491.14,77.572,491.812,77.572
	C491.14,77.572,491.812,77.572,491.812,77.572z M313.094,67.494c-2.688-1.345-6.047-2.688-8.734-4.031c0,0-2.688,0-2.017,0
	c0.673,0.672,0.673,0.672,1.345,1.344c1.344,1.344,4.031,5.375,4.703,6.719c2.688,4.031,4.031,8.734,3.358,12.767
	C314.437,80.26,315.109,71.525,313.094,67.494z M100.781,78.244c-1.344,0.672-2.016,2.016-1.344,3.358
	c0.672,0.672,0.672,1.344,1.344,1.344s1.344,0,2.016,0c1.345-0.672,2.017-1.344,2.017-2.688c0,0.672-1.344,1.344-2.017,2.016
	c-0.672,0.672-2.016-0.672-2.016-1.344s0.672-2.016,1.344-2.688c0.672-0.673,1.345-0.673,2.688-0.673c0.672,0,2.016,0,2.688,0.673
	C105.484,76.9,102.797,76.9,100.781,78.244z M152.515,56.072l0.672,0.673c0,0,0.672,0,0.672-0.673
	C153.859,56.744,153.187,56.744,152.515,56.072z M161.922,52.041c1.345,2.016,0.673,4.703-0.672,6.719
	c-1.344,2.016-3.358,3.359-6.047,4.031c-2.016,0-4.703-0.672-6.047-2.688c-0.672-0.672-0.672-2.016-0.672-3.358
	c0.672-0.673,1.344-2.017,2.016-2.688s2.017-0.672,2.688,0s0.672,1.344,0.672,2.016c0.672-0.672,0.672-1.344,0-2.016
	s-1.344-1.344-2.016-1.344c-0.673,0-1.345,0-2.017,0.672s-2.016,2.016-2.016,3.359c0,1.343,0.672,2.688,1.344,4.03
	c0.672,1.344,2.016,2.017,3.359,2.688c1.343,0.672,2.688,0.672,4.03,0.672c3.359,0,5.375-2.016,7.392-4.031
	c2.016-2.015,2.016-5.375,1.344-8.062c-1.344-2.688-2.688-5.375-5.375-6.72c-1.344-0.672-2.016-1.344-3.359-1.344
	c0.673,0.672,0.673,1.344,0.673,2.688C159.234,48.01,161.25,50.025,161.922,52.041z M107.5,78.244c0.672,0,0.672,0.672,1.345,0.672
	C108.172,78.916,107.5,78.244,107.5,78.244z M315.109,103.775c-6.047,2.017-2.688,8.734-22.843,9.406
	c-9.406,0.672-13.438-4.031-17.47-10.75c0,0,0-0.672-0.672-0.672c-0.672-0.672-1.344-0.672-1.344-0.672
	c-8.734-4.703-18.812-7.392-28.219-4.703c-4.703,1.344-8.734,4.031-11.422,8.062c-2.688,4.031-4.703,8.734-4.031,13.438
	c0,4.703,2.688,9.406,7.391,11.422c2.017,0.672,4.703,1.344,7.392,1.344c2.688,0,4.703-0.672,6.047-2.688
	c1.344-2.017,2.016-4.703,1.344-6.719c-0.672-2.017-2.688-4.031-4.703-4.703c-2.015-0.672-4.703,0-5.375,2.688
	c0,1.344,0,2.688,0.672,3.359s2.017,0,3.359,0c-1.344,0.672-2.688,1.344-4.031,0.672c-0.672-0.672-0.672-1.344-0.672-2.016
	c0-0.673,0-1.345,0-2.017c0.672-2.688,4.031-4.031,6.719-3.358c2.688,0.672,4.703,2.688,6.047,5.375
	c0.673,2.688,0.673,5.375-1.344,8.062c-0.672,1.344-2.016,2.016-3.358,2.688c-1.344,0.672-2.688,0.672-4.031,0.672
	c-2.688,0-5.375,0-8.062-1.345c-5.375-2.016-8.733-7.391-8.733-12.766c-0.672-5.375,1.344-10.75,4.03-15.453
	c2.688-4.703,7.392-8.062,12.767-9.406c5.375-1.344,10.75-1.344,16.125-0.672c2.688,0.672,6.046,1.345,8.734,2.688
	c-1.345-1.344-2.688-2.688-4.703-4.031c-2.017-2.016-4.031-3.359-6.047-4.703c-1.345-0.672-2.017-1.344-3.359-2.016l-1.344-1.344
	c0,0-0.672-0.673-1.345-0.673c-2.688,0.673-4.702,1.345-7.391,2.017c-4.703,1.344-12.094,4.703-14.109,12.094
	c0,0-0.672-5.375,2.017-10.078c-6.047,0.672-12.767,1.344-18.812,0.672c-2.688,0-6.047-0.672-8.733-1.344
	c-1.345,0.672-3.359,2.016-4.031,4.031c0,0-0.672-3.359,1.344-4.703c-2.688-0.672-5.375-2.016-7.391-4.031
	c-0.672,0-2.017,0.672-2.688,0.672c-5.375,1.345-10.75,3.359-16.125,4.031c-1.344,2.016-3.358,4.703-2.688,8.062
	c0,0-2.688-4.031-0.672-7.392c-4.031,0.672-8.062,0.672-12.767,0.672c-2.016,0-4.703-0.672-6.719-0.672
	c-2.016,0.672-4.703,2.017-6.047,4.703c0,0-0.672-4.031,2.688-5.375c-2.016-0.672-4.03-1.344-6.047-2.016
	c-2.688-1.345-5.375-3.359-7.391-5.375c-3.359-2.017-6.719-4.703-10.078-6.047c-2.688-1.345-5.375-2.688-8.062-3.359
	c-2.017,0.672-4.703,2.016-5.375,4.703c0,0-0.673-4.031,2.688-5.375c-0.672,0-0.672,0-1.344,0
	c-4.031-0.672-8.734-0.672-12.767,0.672c-4.031,1.344-8.062,4.031-9.405,8.062c-1.345,4.031,0.672,8.734,4.703,10.078
	c2.016,0.672,4.03,0.672,6.047,0c2.016-0.672,4.03-2.016,4.703-4.03c0.672-0.673,0.672-2.017,0.672-3.359c0,0,0-0.672,0-1.344
	c0.672,0.672,0.672,1.344,0.672,2.688s0,2.688-0.672,3.359c-0.672,2.016-3.359,4.031-5.375,4.703c-2.688,0.672-4.703,0.672-7.392,0
	c-2.688-0.672-4.703-2.688-5.375-4.703c-0.672-2.016-1.344-4.703-0.672-6.719c-9.406,3.358-18.141,4.03-27.547,4.702
	c-2.016,0-3.359,0-5.375,0c-2.688,0.673-6.719,3.359-8.062,7.392c0,0-0.673-4.703,2.016-7.392c-6.719,0-13.438-1.344-20.156-2.688
	c-4.703-1.344-10.078-2.688-14.781-5.375c-4.702-2.016-9.405-4.703-12.766-8.734C1.344,64.135,0,62.119,0,58.76
	c0-2.688,2.688-5.375,5.375-5.375c2.688-0.672,5.375,0,7.392,2.016c0.672,0.672,0.672,1.345,0,2.017c0-0.672,0-0.672,0-1.345
	c-1.345-2.016-4.031-2.016-6.72-2.016c-2.687,0-4.702,2.016-4.702,4.703c0,2.016,1.344,4.031,3.358,6.047
	c3.359,3.359,8.062,6.047,12.767,7.391c4.702,2.017,9.405,3.359,14.108,4.703c0.672,0,1.344,0,2.017,0.672
	c-1.345-2.688-0.673-6.719-0.673-6.719c0.673,3.359,3.359,6.047,5.375,7.392c7.392,1.344,15.453,1.344,22.845,1.344
	c4.703,0,10.078-0.672,14.78-1.344c4.703-0.673,10.078-2.017,14.109-3.359c0.672-1.344,2.016-2.016,2.688-3.359
	c2.016-1.344,4.03-2.688,6.047-3.358c2.016-0.671,4.03-1.345,6.047-1.345c-1.344-2.016-0.672-5.375-0.672-5.375
	c0.672,2.017,2.016,4.031,4.03,5.375c1.345,0,3.359,0,4.703,0.673c4.031,0.672,7.392,2.016,10.75,3.358
	c-1.344-1.344-2.688-2.016-4.03-3.358c-6.048-5.375-14.781-15.453-13.438-26.203c-1.344-0.672-1.344-0.672-2.016-2.017
	c0-0.672-0.673-1.344-0.673-2.016c-0.672,0.672-1.344,1.344-2.016,2.016c0,1.345,0.672,2.017,0.672,3.359
	c0.672,4.703-4.031,8.062-4.703,9.406c1.345-2.688,1.345-6.047,0.672-9.406c0-0.672-0.672-1.344-0.672-2.016
	c0-2.688,1.345-4.703,3.359-6.72c0-0.672,0.672-0.672,1.344-0.672c-1.344-0.672-7.391-2.688-8.062,2.017
	c0,0.672-1.345,0-1.345,0.672c1.345-2.017,0.673-4.031,0.673-6.047c0.672-1.345,2.688-1.345,3.358-1.345
	c0.672,0.672,1.344,0.672,1.344,1.345c1.345,2.016,2.688,2.016,4.703,2.688c1.345,2.016,6.72,2.688,10.75,1.344
	c1.345,1.345,2.688,2.688,3.359,4.031c1.344,2.016,0.672,2.016-0.672,4.031c-1.344,1.344-1.344,6.047,0,8.062
	c0,2.017,0,2.017,0,2.017c0-0.672-0.672-1.345-1.344-2.688c-1.345-1.344-2.688-4.703-2.688-6.047c0-0.672,0-2.016,0-3.359
	c0,0.673,0,0.673,0,1.345s-1.344,0.672-1.344,1.344c0,6.047,4.031,14.109,10.078,20.828c0-2.688,2.688-4.703,2.688-4.703
	c-1.344,2.688-0.672,5.375,0,7.391c2.688,2.688,6.047,4.703,8.734,6.047c-1.344-4.702-0.672-9.405,0.672-13.438
	c0-0.672,0.672-1.344,0.672-2.016c0-2.017,0-4.703-2.016-6.72c0,0,2.688,0.672,4.03,3.359c0,0.672-0.672,1.344-0.672,2.016
	c-1.344,4.703-1.344,10.078,0.672,14.781c1.345,3.359,3.359,5.375,6.048,7.391c-0.673-3.358,1.344-6.047,1.344-6.047
	c-0.672,3.359,0.672,6.047,2.688,8.062c4.031,2.016,8.062,2.688,12.767,2.688c0,0-0.672-0.672-0.672-1.344
	c-2.688-3.359,0.672-8.062,0.672-8.062c-0.672,4.03,1.344,7.391,3.358,9.405c6.72,0,14.109-1.344,20.828-3.358
	c-6.719-6.72-12.766-14.109-11.422-28.22c0-4.702,3.359-9.405,6.719-12.094c0-2.688,0.672-7.391,5.375-8.733
	c6.72-2.017,10.75-0.673,10.75-0.673s1.345,6.72-2.688,10.078c-2.688,2.017-8.062,1.345-10.75,1.345
	c1.344-0.673,2.688-1.345,4.703-2.688l6.047-1.344l-4.703,0.672c3.359-2.688,5.375-5.375,6.047-6.047
	c-1.344,1.344-3.359,2.688-5.375,4.031l0.672-4.031l-2.016,4.703c-1.344,0.672-2.688,2.016-4.031,2.016l1.344-6.047l-2.016,6.047
	c-1.344,0.672-2.016,0.672-2.688,0.672c-3.358,2.017-4.702,6.719-4.702,10.75c0,7.392,2.016,12.767,4.702,17.469V66.15
	c0.673-3.358,4.703-4.03,4.703-4.03c-2.688,2.016-3.358,5.375-3.358,7.391c2.688,3.359,5.375,6.047,7.391,6.719
	c1.344-0.672,2.688-0.672,4.031-1.344c-1.344-1.344-2.017-3.359-2.688-4.703c-1.344-3.359-2.016-6.719-1.344-10.078
	c1.344,3.359,2.016,6.047,4.031,9.406c0.672,2.016,2.016,3.359,3.358,4.703c2.017-0.672,4.703-1.344,7.392-2.017
	c-1.344-2.016-1.344-4.702-1.344-4.702c0.672,2.016,2.016,3.358,3.358,4.03c1.344,0,2.017-0.672,3.359-0.672
	c5.375-1.344,10.75-1.344,16.125-1.344h0.672c-2.688-4.031,0-9.406,0-9.406c0,4.031,2.688,7.392,4.703,9.406
	c3.358,0,7.391,0.672,10.75,1.344c0.672,0,1.344,0,2.016,0c-2.016-6.719,5.375-11.422,5.375-11.422
	c-2.688,4.031-2.016,8.734-0.672,12.766c3.359,0.673,6.719,2.017,10.078,3.359c0.672,0,1.343,0.672,2.016,1.344l2.017,1.345
	c1.344,0.672,2.016,1.344,3.358,2.688c2.017,1.344,4.031,3.359,6.046,5.375c1.345,1.344,3.359,2.688,4.703,4.703
	c0-0.672,0-2.016,0-2.688c-2.687,0-8.062-8.733-4.031-14.108c0.673,4.703,3.359,12.094,6.72,14.108
	c4.03,12.095,14.78,16.798,20.829,16.798C302.343,105.119,309.062,105.791,315.109,103.775z M112.875,38.604
	c0,0.672,0,0.672-0.672,1.344C112.203,39.947,112.203,39.947,112.875,38.604L112.875,38.604z M103.469,79.588
	c-0.673,0-1.345,0-1.345,0.672C102.797,80.26,103.469,79.588,103.469,79.588z M12.765,57.416c-0.673,0.672-0.673,0.672-1.345,1.344
	C12.094,58.76,12.094,58.088,12.765,57.416z M155.875,43.979L155.875,43.979c-0.672-2.016-2.688-2.688-4.703-2.016
	c-2.688,0-4.702,1.344-7.391,2.016l-0.672,0.672c1.344,0.672,2.016,0.672,2.688,1.345c2.017-0.673,4.031-1.345,6.048-2.017
	C153.187,43.979,154.531,43.979,155.875,43.979z M145.125,45.994L145.125,45.994c0,0.672,0.672,0.672,0.672,0.672
	C146.469,46.666,145.797,46.666,145.125,45.994z M143.781,46.666c0.672,0,0.672,0,1.344-0.672c-2.016-0.673-3.358,0-5.375,1.344
	c-1.344,1.344-3.358,3.358-4.03,6.047l0,0C137.734,50.697,140.422,48.01,143.781,46.666z M283.531,90.338
	c2.016,3.358,12.094,8.062,15.453,7.391c4.031-1.344,9.406-6.719,10.75-8.733c0.672-1.345,0.672-3.359,0.672-4.703
	c0-4.703-2.016-8.062-4.03-12.767c-1.345-2.688-4.031-6.047-6.048-8.062c-2.016,0-6.718,1.344-8.062,3.358
	c-4.703,6.72-1.345,15.453-0.672,16.798c0.672,1.344,1.344,2.016,2.016,2.016c1.344,0.672,3.359-0.672,4.031-1.344
	c-4.031-2.688-5.375-7.392-5.375-12.095c0-0.672,0.672-0.672,1.344-0.672s8.734,1.345,10.078,2.688
	c4.031,2.688-6.046,15.453-12.093,12.766c-4.031-1.344-4.703-14.108-2.017-18.812C285.547,71.525,282.187,83.619,283.531,90.338z
	 M300.999,74.213c-1.344-0.672-6.718-2.017-7.39-2.017c0,3.359,2.688,7.392,4.703,10.078
	C303.015,78.244,303.687,76.229,300.999,74.213z"/>
</svg>
